<mxfile host="app.diagrams.net" modified="2023-10-05T18:53:00.124Z" agent="Mozilla/5.0 (Windows NT 10.0; Win64; x64) AppleWebKit/537.36 (KHTML, like Gecko) Chrome/117.0.0.0 Safari/537.36 Edg/117.0.2045.47" version="22.0.2" etag="GkioaHuMrvsEoLgMAZ0m" type="github">
  <diagram name="Page-1" id="mSVqZgAhMI-2gXhVj0-4">
    <mxGraphModel>
      <root>
        <mxCell id="0" />
        <mxCell id="1" parent="0" />
      </root>
    </mxGraphModel>
  </diagram>
</mxfile>
